<?xml version="1.0" encoding="utf-8"?>
<!-- Generator: Adobe Illustrator 17.0.0, SVG Export Plug-In . SVG Version: 6.00 Build 0)  -->
<!DOCTYPE svg PUBLIC "-//W3C//DTD SVG 1.1//EN" "http://www.w3.org/Graphics/SVG/1.1/DTD/svg11.dtd">
<svg version="1.1" id="Layer_1" xmlns="http://www.w3.org/2000/svg" xmlns:xlink="http://www.w3.org/1999/xlink" x="0px" y="0px"
	 width="220px" height="38px" viewBox="0 0 220 38" enable-background="new 0 0 220 38" xml:space="preserve">
<path d="M20.859,31.457c2.497,0,4.625-0.91,6.385-2.73c1.76-1.82,2.64-4.016,2.64-6.588c0-2.572-0.895-4.798-2.685-6.678
	c-1.79-1.88-3.911-2.82-6.362-2.82c-2.452,0-4.565,0.94-6.34,2.82c-1.775,1.88-2.662,4.114-2.662,6.701
	c0,2.587,0.857,4.783,2.572,6.588C16.121,30.554,18.272,31.457,20.859,31.457z M20.859,8.986c3.55,0,6.565,1.278,9.047,3.835
	c2.482,2.557,3.722,5.625,3.722,9.205c0,3.58-1.226,6.64-3.677,9.182c-2.452,2.542-5.482,3.813-9.092,3.813
	c-3.61,0-6.648-1.271-9.115-3.813c-2.466-2.542-3.7-5.603-3.7-9.182c0-3.58,1.241-6.648,3.723-9.205
	C14.248,10.265,17.279,8.986,20.859,8.986z"/>
<rect x="29.999" y="21.752" width="3.63" height="13.024"/>
<path d="M211.956,12.784l-2.391,2.482c-1.775-1.655-3.399-2.482-4.873-2.482c-0.933,0-1.715,0.293-2.347,0.88
	c-0.631,0.587-0.947,1.309-0.947,2.166c0,0.857,0.354,1.609,1.06,2.256c0.707,0.647,1.963,1.444,3.768,2.392
	c1.805,0.947,3.196,1.993,4.174,3.136c0.977,1.143,1.466,2.542,1.466,4.196c0,2.105-0.73,3.88-2.189,5.324
	c-1.458,1.444-3.256,2.166-5.392,2.166c-2.978,0-5.46-1.264-7.445-3.79l2.346-2.617c1.625,1.895,3.279,2.842,4.964,2.842
	c1.143,0,2.121-0.376,2.933-1.128c0.812-0.752,1.218-1.632,1.218-2.64c0-1.008-0.368-1.85-1.105-2.527
	c-0.737-0.677-2-1.466-3.79-2.369c-1.79-0.902-3.143-1.903-4.061-3.001c-0.918-1.098-1.376-2.542-1.376-4.332
	c0-1.79,0.654-3.316,1.963-4.58c1.309-1.264,3.038-1.895,5.189-1.895C207.271,9.264,209.55,10.437,211.956,12.784z M194.465,34.886
	h-3.745v-3.7c-2.437,2.888-5.324,4.331-8.663,4.331c-1.775,0-3.384-0.458-4.828-1.376c-1.444-0.918-2.527-2.181-3.249-3.79
	c-0.722-1.609-1.083-4.084-1.083-7.422V10.295h3.7v11.731c0,2.708,0.128,4.55,0.383,5.528c0.256,0.978,0.632,1.805,1.128,2.482
	c0.496,0.677,1.128,1.181,1.895,1.512c0.767,0.331,1.7,0.496,2.797,0.496s2.174-0.271,3.226-0.812
	c1.053-0.541,1.955-1.294,2.708-2.256c0.752-0.963,1.271-1.985,1.557-3.068c0.286-1.083,0.428-3.249,0.428-6.498v-9.114h3.745
	V34.886z M157.376,31.77c2.497,0,4.625-0.91,6.385-2.73c1.76-1.82,2.64-4.016,2.64-6.588c0-2.572-0.895-4.798-2.685-6.678
	c-1.79-1.88-3.911-2.82-6.362-2.82c-2.452,0-4.565,0.94-6.34,2.82c-1.775,1.88-2.662,4.114-2.662,6.701s0.857,4.783,2.572,6.588
	C152.639,30.868,154.789,31.77,157.376,31.77z M157.376,9.3c3.55,0,6.565,1.278,9.047,3.835c2.482,2.557,3.722,5.625,3.722,9.205
	c0,3.58-1.226,6.64-3.677,9.182c-2.452,2.542-5.482,3.813-9.092,3.813c-3.61,0-6.648-1.271-9.114-3.813
	c-2.467-2.542-3.7-5.603-3.7-9.182c0-3.58,1.241-6.648,3.723-9.205C150.766,10.578,153.797,9.3,157.376,9.3z M141.85,34.812h-3.745
	v-3.7c-2.437,2.888-5.324,4.331-8.663,4.331c-1.775,0-3.384-0.459-4.828-1.376c-1.444-0.918-2.527-2.181-3.249-3.79
	c-0.722-1.609-1.083-4.084-1.083-7.423V10.22h3.7v11.732c0,2.707,0.128,4.55,0.383,5.527c0.256,0.978,0.632,1.805,1.128,2.482
	c0.496,0.677,1.128,1.181,1.895,1.511c0.767,0.331,1.7,0.496,2.797,0.496c1.098,0,2.174-0.271,3.226-0.812
	c1.053-0.541,1.955-1.293,2.708-2.256c0.752-0.963,1.271-1.985,1.557-3.068c0.286-1.083,0.428-3.249,0.428-6.497V10.22h3.745V34.812
	z M117.606,13.488h-4.873l-0.007,16.469c0,0.632,0.09,1.015,0.27,1.151c0.18,0.135,0.632,0.203,1.354,0.203l3.247-0.005l0.007,3.568
	c-2.17,0.001-3.631,0.001-4.383,0.001c-1.444,0-2.512-0.353-3.204-1.06c-0.692-0.707-1.038-1.827-1.038-3.361l0.007-16.966h-4.241
	v-3.249h4.241v-9.25h3.745v9.25h4.873V13.488z M101.379,13.496c-1.999-0.068-3.449,0.328-4.35,1.187
	c-0.873,0.857-1.448,2.066-1.726,3.628c-0.292,1.507-0.439,4.2-0.439,8.081v8.438h-3.79V10.239h3.79l-0.003,2.369
	c0.867-1.016,1.898-1.69,3.095-2.02c0,0,1.571-0.429,3.422-0.299 M86.968,34.831h-3.745V10.239h3.745V34.831z M49.347,34.766h-3.7
	V0.925h3.7V34.766z M41.553,34.787h-3.7V0.946h3.7V34.787z"/>
<circle fill="#FF8200" cx="66.237" cy="22.648" r="14.426"/>
<polygon fill="#FFFFFF" points="54.768,10.056 58.117,10.056 66.237,28.589 74.356,10.056 77.705,10.056 66.558,35.241 
	66.007,35.241 "/>
</svg>
